<svg width="874" height="572" viewBox="0 0 874 572" fill="none" xmlns="http://www.w3.org/2000/svg">
<path d="M113.43 65.1077C120.917 67.4775 126.782 71.4688 131.025 77.0816C135.267 82.5696 137.389 89.3672 137.389 97.4745C137.389 108.949 132.896 117.805 123.912 124.041C115.052 130.153 102.074 133.209 84.9789 133.209H17.2204V2.24509H81.2353C97.2078 2.24509 109.437 5.30091 117.922 11.4126C126.532 17.5242 130.838 25.8186 130.838 36.2957C130.838 42.6568 129.278 48.3319 126.158 53.321C123.163 58.3101 118.921 62.239 113.43 65.1077ZM47.3561 25.0702V55.9403H77.4917C84.9789 55.9403 90.6566 54.6306 94.525 52.0113C98.3933 49.3921 100.327 45.5255 100.327 40.4117C100.327 35.2979 98.3933 31.4937 94.525 28.9991C90.6566 26.3799 84.9789 25.0702 77.4917 25.0702H47.3561ZM82.7327 110.384C90.719 110.384 96.7087 109.074 100.702 106.455C104.82 103.836 106.879 99.782 106.879 94.2939C106.879 83.4427 98.8301 78.017 82.7327 78.017H47.3561V110.384H82.7327Z" fill="white"/>
<path d="M223.799 135.454C210.198 135.454 197.906 132.523 186.925 126.661C176.069 120.799 167.521 112.754 161.282 102.526C155.167 92.1736 152.11 80.5739 152.11 67.727C152.11 54.8801 155.167 43.3428 161.282 33.1151C167.521 22.7628 176.069 14.6555 186.925 8.79328C197.906 2.93109 210.198 0 223.799 0C237.401 0 249.63 2.93109 260.486 8.79328C271.342 14.6555 279.89 22.7628 286.13 33.1151C292.369 43.3428 295.488 54.8801 295.488 67.727C295.488 80.5739 292.369 92.1736 286.13 102.526C279.89 112.754 271.342 120.799 260.486 126.661C249.63 132.523 237.401 135.454 223.799 135.454ZM223.799 109.635C231.536 109.635 238.524 107.889 244.763 104.397C251.002 100.78 255.869 95.7907 259.363 89.4296C262.982 83.0685 264.791 75.8343 264.791 67.727C264.791 59.6197 262.982 52.3855 259.363 46.0244C255.869 39.6633 251.002 34.7366 244.763 31.2442C238.524 27.6271 231.536 25.8186 223.799 25.8186C216.063 25.8186 209.075 27.6271 202.835 31.2442C196.596 34.7366 191.667 39.6633 188.048 46.0244C184.554 52.3855 182.807 59.6197 182.807 67.727C182.807 75.8343 184.554 83.0685 188.048 89.4296C191.667 95.7907 196.596 100.78 202.835 104.397C209.075 107.889 216.063 109.635 223.799 109.635Z" fill="white"/>
<path d="M375.503 86.8103V133.209H345.18V86.4361L294.455 2.24509H326.649L361.652 60.4304L396.654 2.24509H426.415L375.503 86.8103Z" fill="white"/>
<path d="M496.14 135.454C482.788 135.454 470.684 132.585 459.828 126.848C449.096 120.986 440.611 112.941 434.372 102.713C428.257 92.3607 425.2 80.6987 425.2 67.727C425.2 54.7553 428.257 43.1557 434.372 32.928C440.611 22.5757 449.096 14.5307 459.828 8.79328C470.684 2.93109 482.851 0 496.328 0C507.683 0 517.916 1.99564 527.025 5.98692C536.259 9.9782 543.996 15.7157 550.235 23.1993L530.768 41.1601C521.909 30.9324 510.928 25.8186 497.825 25.8186C489.714 25.8186 482.476 27.6271 476.112 31.2442C469.748 34.7366 464.757 39.6633 461.138 46.0244C457.644 52.3855 455.897 59.6197 455.897 67.727C455.897 75.8343 457.644 83.0685 461.138 89.4296C464.757 95.7907 469.748 100.78 476.112 104.397C482.476 107.889 489.714 109.635 497.825 109.635C510.928 109.635 521.909 104.459 530.768 94.1068L550.235 112.068C543.996 119.676 536.259 125.476 527.025 129.467C517.791 133.458 507.496 135.454 496.14 135.454Z" fill="white"/>
<path d="M631.423 135.454C617.822 135.454 605.53 132.523 594.549 126.661C583.693 120.799 575.145 112.754 568.906 102.526C562.791 92.1736 559.734 80.5739 559.734 67.727C559.734 54.8801 562.791 43.3428 568.906 33.1151C575.145 22.7628 583.693 14.6555 594.549 8.79328C605.53 2.93109 617.822 0 631.423 0C645.025 0 657.254 2.93109 668.11 8.79328C678.967 14.6555 687.515 22.7628 693.754 33.1151C699.993 43.3428 703.113 54.8801 703.113 67.727C703.113 80.5739 699.993 92.1736 693.754 102.526C687.515 112.754 678.967 120.799 668.11 126.661C657.254 132.523 645.025 135.454 631.423 135.454ZM631.423 109.635C639.16 109.635 646.148 107.889 652.387 104.397C658.627 100.78 663.493 95.7907 666.987 89.4296C670.606 83.0685 672.415 75.8343 672.415 67.727C672.415 59.6197 670.606 52.3855 666.987 46.0244C663.493 39.6633 658.627 34.7366 652.387 31.2442C646.148 27.6271 639.16 25.8186 631.423 25.8186C623.687 25.8186 616.699 27.6271 610.46 31.2442C604.22 34.7366 599.291 39.6633 595.672 46.0244C592.178 52.3855 590.431 59.6197 590.431 67.727C590.431 75.8343 592.178 83.0685 595.672 89.4296C599.291 95.7907 604.22 100.78 610.46 104.397C616.699 107.889 623.687 109.635 631.423 109.635Z" fill="white"/>
<path d="M751.215 26.9411H709.287V2.24509H823.465V26.9411H781.537V133.209H751.215V26.9411Z" fill="white"/>
<path d="M868.749 26.9411H826.821V2.24509H941V26.9411H899.072V133.209H868.749V26.9411Z" fill="white"/>
<path d="M17.2204 220.518H47.5432V326.786H113.243V351.482H17.2204V220.518Z" fill="white"/>
<path d="M191.445 353.727C177.844 353.727 165.552 350.796 154.571 344.934C143.715 339.072 135.167 331.027 128.928 320.799C122.813 310.447 119.756 298.847 119.756 286C119.756 273.153 122.813 261.616 128.928 251.388C135.167 241.036 143.715 232.928 154.571 227.066C165.552 221.204 177.844 218.273 191.445 218.273C205.047 218.273 217.276 221.204 228.132 227.066C238.988 232.928 247.536 241.036 253.776 251.388C260.015 261.616 263.134 273.153 263.134 286C263.134 298.847 260.015 310.447 253.776 320.799C247.536 331.027 238.988 339.072 228.132 344.934C217.276 350.796 205.047 353.727 191.445 353.727ZM191.445 327.908C199.182 327.908 206.17 326.162 212.409 322.67C218.648 319.053 223.515 314.064 227.009 307.703C230.628 301.341 232.437 294.107 232.437 286C232.437 277.893 230.628 270.659 227.009 264.297C223.515 257.936 218.648 253.01 212.409 249.517C206.17 245.9 199.182 244.092 191.445 244.092C183.709 244.092 176.721 245.9 170.481 249.517C164.242 253.01 159.313 257.936 155.694 264.297C152.2 270.659 150.453 277.893 150.453 286C150.453 294.107 152.2 301.341 155.694 307.703C159.313 314.064 164.242 319.053 170.481 322.67C176.721 326.162 183.709 327.908 191.445 327.908Z" fill="white"/>
<path d="M344.136 353.727C325.418 353.727 310.818 348.551 300.336 338.198C289.979 327.846 284.8 313.066 284.8 293.858V220.518H315.123V292.735C315.123 316.184 324.856 327.908 344.323 327.908C353.807 327.908 361.044 325.102 366.036 319.489C371.027 313.752 373.523 304.834 373.523 292.735V220.518H403.471V293.858C403.471 313.066 398.23 327.846 387.748 338.198C377.391 348.551 362.854 353.727 344.136 353.727Z" fill="white"/>
<path d="M433.436 220.518H463.759V351.482H433.436V220.518Z" fill="white"/>
<path d="M537.905 353.727C527.547 353.727 517.502 352.355 507.769 349.611C498.16 346.742 490.424 343.063 484.559 338.573L494.854 315.747C500.469 319.864 507.145 323.169 514.882 325.663C522.618 328.158 530.355 329.405 538.092 329.405C546.702 329.405 553.066 328.158 557.184 325.663C561.302 323.044 563.361 319.614 563.361 315.373C563.361 312.255 562.113 309.698 559.617 307.703C557.246 305.582 554.127 303.898 550.258 302.651C546.515 301.404 541.399 300.032 534.91 298.535C524.927 296.165 516.753 293.795 510.389 291.426C504.025 289.056 498.535 285.252 493.918 280.013C489.425 274.775 487.179 267.79 487.179 259.059C487.179 251.45 489.238 244.59 493.356 238.479C497.474 232.242 503.651 227.316 511.887 223.699C520.247 220.082 530.417 218.273 542.397 218.273C550.757 218.273 558.931 219.271 566.917 221.266C574.903 223.262 581.891 226.131 587.881 229.873L578.522 252.885C566.418 246.025 554.314 242.595 542.21 242.595C533.724 242.595 527.423 243.967 523.305 246.711C519.312 249.455 517.315 253.072 517.315 257.562C517.315 262.052 519.623 265.42 524.241 267.665C528.982 269.785 536.158 271.906 545.766 274.026C555.749 276.396 563.922 278.766 570.286 281.136C576.65 283.505 582.079 287.247 586.571 292.361C591.188 297.475 593.496 304.397 593.496 313.128C593.496 320.612 591.375 327.472 587.132 333.708C583.014 339.82 576.775 344.684 568.415 348.301C560.054 351.918 549.884 353.727 537.905 353.727Z" fill="white"/>
<path d="M143.191 438.791L86.4763 569.755H56.5278L0 438.791H32.7562L72.6251 532.337L113.056 438.791H143.191Z" fill="white"/>
<path d="M215.085 572C196.367 572 181.768 566.824 171.286 556.471C160.928 546.119 155.75 531.339 155.75 512.131V438.791H186.073V511.008C186.073 534.457 195.806 546.181 215.272 546.181C224.756 546.181 231.994 543.375 236.985 537.762C241.976 532.025 244.472 523.107 244.472 511.008V438.791H274.421V512.131C274.421 531.339 269.18 546.119 258.698 556.471C248.341 566.824 233.803 572 215.085 572Z" fill="white"/>
<path d="M304.385 438.791H334.708V569.755H304.385V438.791Z" fill="white"/>
<path d="M392.944 463.487H351.016V438.791H465.195V463.487H423.267V569.755H392.944V463.487Z" fill="white"/>
<path d="M510.479 463.487H468.551V438.791H582.729V463.487H540.801V569.755H510.479V463.487Z" fill="white"/>
<path d="M660.67 572C647.068 572 634.777 569.069 623.796 563.207C612.94 557.345 604.392 549.3 598.153 539.072C592.038 528.72 588.981 517.12 588.981 504.273C588.981 491.426 592.038 479.889 598.153 469.661C604.392 459.309 612.94 451.202 623.796 445.339C634.777 439.477 647.068 436.546 660.67 436.546C674.272 436.546 686.501 439.477 697.357 445.339C708.213 451.202 716.761 459.309 723 469.661C729.24 479.889 732.359 491.426 732.359 504.273C732.359 517.12 729.24 528.72 723 539.072C716.761 549.3 708.213 557.345 697.357 563.207C686.501 569.069 674.272 572 660.67 572ZM660.67 546.181C668.407 546.181 675.395 544.435 681.634 540.943C687.873 537.326 692.74 532.337 696.234 525.976C699.853 519.614 701.662 512.38 701.662 504.273C701.662 496.166 699.853 488.932 696.234 482.57C692.74 476.209 687.873 471.283 681.634 467.79C675.395 464.173 668.407 462.365 660.67 462.365C652.933 462.365 645.945 464.173 639.706 467.79C633.467 471.283 628.538 476.209 624.919 482.57C621.425 488.932 619.678 496.166 619.678 504.273C619.678 512.38 621.425 519.614 624.919 525.976C628.538 532.337 633.467 537.326 639.706 540.943C645.945 544.435 652.933 546.181 660.67 546.181Z" fill="white"/>
<path d="M875.317 438.791V569.755H850.422L785.097 490.241V569.755H755.148V438.791H780.23L845.368 518.305V438.791H875.317Z" fill="white"/>
</svg>
